# xmcd
#
# Track frame offsets:
#	150
#	20136
#	36688
#	53828
#	74203
#	93993
#	110784
#	131627
#	150115
#	168178
#	185502
#	204990
#	223477
#	240623
#	257709
#	272058
#	278874
#
# Disc length: 3960 seconds
#
# Revision: 1
# Processed by: cddbd v1.5.2PL0 Copyright (c) Steve Scherf et al.
# Submitted via: EZCDAudioConverter 2.7.0.1
#
DISCID=0a0f7611
DTITLE=터보(Turbo) - REBOOT - THE BEST
DYEAR=2005
DGENRE=팝/댄스
TTITLE0=X (The Greatest Love)
TTITLE1=애인이 생겼어요
TTITLE2=허니문 (Honeymoon)
TTITLE3=Love Forever
TTITLE4=California
TTITLE5=Cyber Lover
TTITLE6=Tonight
TTITLE7=D.D.R (Double Date Revolution)
TTITLE8=Paradoxx
TTITLE9=Easy Love
TTITLE10=내사랑 내곁에 (R&B Ver.)
TTITLE11=후회없는 사랑
TTITLE12=나 어릴 적 꿈 (Acid House Remix) - Bonus Track
TTITLE13=나 어릴 적 꿈 (Techno Remix) - Bonus Track
TTITLE14=검은 고양이 (X-Mas Remix) - Bonus Track
TTITLE15=생일 축하곡 (Acid House Remix) - Bonus Track
TTITLE16=Last Christmas (Pop Dance) - Bonus Track
EXTD=
EXTT0=
EXTT1=
EXTT2=
EXTT3=
EXTT4=
EXTT5=
EXTT6=
EXTT7=
EXTT8=
EXTT9=
EXTT10=
EXTT11=
EXTT12=
EXTT13=
EXTT14=
EXTT15=
EXTT16=
PLAYORDER=
